<svg xmlns="http://www.w3.org/2000/svg" xmlns:xlink="http://www.w3.org/1999/xlink" width="1080" zoomAndPan="magnify" viewBox="0 0 810 809.999993" height="1080" preserveAspectRatio="xMidYMid meet" version="1.0"><defs><g/></defs><g fill="#582707" fill-opacity="1"><g transform="translate(80.999999, 416.709726)"><g><path d="M 154.613281 -51.015625 C 135.253906 -20.667969 122.699219 -4.1875 86.59375 -4.1875 L 50.492188 -4.1875 L 50.492188 -168.21875 C 50.492188 -177.636719 59.648438 -180.515625 72.992188 -181.824219 L 72.992188 -183.128906 L 3.925781 -183.128906 L 3.925781 -181.824219 C 14.652344 -180.515625 23.808594 -177.636719 23.808594 -168.21875 L 23.808594 -20.144531 C 23.808594 -10.726562 14.652344 -5.230469 3.925781 -1.308594 L 3.925781 0 L 132.378906 0 L 141.273438 5.753906 L 142.839844 0 L 155.660156 -50.492188 Z M 154.613281 -51.015625 "/></g></g></g><g fill="#582707" fill-opacity="1"><g transform="translate(142.010183, 489.076723)"><g><path d="M 205.542969 -78.675781 L 205.542969 -79.976562 L 110.71875 -79.976562 L 105.507812 -76.851562 C 150.054688 -75.546875 159.171875 -74.246094 159.171875 -64.867188 L 159.171875 -21.101562 C 152.398438 -12.503906 141.980469 -7.816406 126.089844 -7.816406 C 77.371094 -7.816406 40.902344 -52.101562 40.902344 -106.289062 C 40.902344 -155.003906 69.816406 -180.535156 104.726562 -180.535156 C 145.105469 -180.535156 166.726562 -147.449219 152.660156 -112.800781 L 153.441406 -112.542969 L 186.527344 -158.652344 C 174.542969 -173.242188 150.835938 -186.007812 117.230469 -186.007812 C 63.566406 -186.007812 11.722656 -151.359375 11.722656 -91.179688 C 11.722656 -35.167969 57.574219 3.648438 107.332031 3.648438 C 129.734375 3.648438 147.710938 -4.167969 159.171875 -16.414062 L 156.566406 0 L 205.542969 0 L 205.542969 -1.300781 C 194.863281 -2.605469 185.746094 -5.472656 185.746094 -14.847656 L 185.746094 -64.867188 C 185.746094 -74.246094 194.863281 -77.371094 205.542969 -78.675781 Z M 205.542969 -78.675781 "/></g></g></g><g fill="#582707" fill-opacity="1"><g transform="translate(384.726253, 403.179199)"><g><path d="M 3.40625 -22.734375 L 6.65625 -22.734375 L 6.65625 -2.828125 L 18.96875 -2.828125 L 18.96875 0 L 3.40625 0 Z M 3.40625 -22.734375 "/></g></g></g><g fill="#582707" fill-opacity="1"><g transform="translate(405.923935, 403.179199)"><g><path d="M 3.40625 -22.734375 L 6.65625 -22.734375 L 6.65625 0 L 3.40625 0 Z M 3.40625 -22.734375 "/></g></g></g><g fill="#582707" fill-opacity="1"><g transform="translate(417.902691, 403.179199)"><g><path d="M 20.390625 -2.828125 L 20.390625 0 L 1.390625 0 L 1.390625 -2.203125 L 15.6875 -19.90625 L 1.625 -19.90625 L 1.625 -22.734375 L 19.96875 -22.734375 L 19.96875 -20.515625 L 5.75 -2.828125 Z M 20.390625 -2.828125 "/></g></g></g><g fill="#582707" fill-opacity="1"><g transform="translate(441.145406, 403.179199)"><g><path d="M 20.390625 -2.828125 L 20.390625 0 L 1.390625 0 L 1.390625 -2.203125 L 15.6875 -19.90625 L 1.625 -19.90625 L 1.625 -22.734375 L 19.96875 -22.734375 L 19.96875 -20.515625 L 5.75 -2.828125 Z M 20.390625 -2.828125 "/></g></g></g><g fill="#582707" fill-opacity="1"><g transform="translate(464.388126, 403.179199)"><g><path d="M 12.109375 -7.859375 L 12.109375 0 L 8.890625 0 L 8.890625 -7.921875 L -0.125 -22.734375 L 3.34375 -22.734375 L 10.625 -10.75 L 17.921875 -22.734375 L 21.140625 -22.734375 Z M 12.109375 -7.859375 "/></g></g></g><g fill="#582707" fill-opacity="1"><g transform="translate(487.306235, 403.179199)"><g/></g></g><g fill="#582707" fill-opacity="1"><g transform="translate(497.954092, 403.179199)"><g><path d="M 19.15625 -11.5 L 22.28125 -11.5 L 22.28125 -2.625 C 21.144531 -1.695312 19.832031 -0.984375 18.34375 -0.484375 C 16.851562 0.015625 15.296875 0.265625 13.671875 0.265625 C 11.378906 0.265625 9.3125 -0.238281 7.46875 -1.25 C 5.625 -2.257812 4.175781 -3.644531 3.125 -5.40625 C 2.082031 -7.164062 1.5625 -9.148438 1.5625 -11.359375 C 1.5625 -13.566406 2.082031 -15.554688 3.125 -17.328125 C 4.175781 -19.109375 5.628906 -20.492188 7.484375 -21.484375 C 9.335938 -22.484375 11.421875 -22.984375 13.734375 -22.984375 C 15.554688 -22.984375 17.207031 -22.6875 18.6875 -22.09375 C 20.164062 -21.5 21.425781 -20.628906 22.46875 -19.484375 L 20.453125 -17.46875 C 18.640625 -19.21875 16.441406 -20.09375 13.859375 -20.09375 C 12.128906 -20.09375 10.578125 -19.71875 9.203125 -18.96875 C 7.828125 -18.226562 6.75 -17.191406 5.96875 -15.859375 C 5.195312 -14.523438 4.8125 -13.023438 4.8125 -11.359375 C 4.8125 -9.710938 5.195312 -8.222656 5.96875 -6.890625 C 6.75 -5.566406 7.828125 -4.523438 9.203125 -3.765625 C 10.578125 -3.003906 12.117188 -2.625 13.828125 -2.625 C 15.867188 -2.625 17.644531 -3.113281 19.15625 -4.09375 Z M 19.15625 -11.5 "/></g></g></g><g fill="#582707" fill-opacity="1"><g transform="translate(524.929829, 403.179199)"><g><path d="M 13.671875 0.265625 C 11.378906 0.265625 9.3125 -0.238281 7.46875 -1.25 C 5.625 -2.257812 4.175781 -3.648438 3.125 -5.421875 C 2.082031 -7.191406 1.5625 -9.171875 1.5625 -11.359375 C 1.5625 -13.546875 2.082031 -15.523438 3.125 -17.296875 C 4.175781 -19.078125 5.625 -20.46875 7.46875 -21.46875 C 9.3125 -22.476562 11.378906 -22.984375 13.671875 -22.984375 C 15.941406 -22.984375 17.992188 -22.476562 19.828125 -21.46875 C 21.671875 -20.46875 23.113281 -19.082031 24.15625 -17.3125 C 25.195312 -15.550781 25.71875 -13.566406 25.71875 -11.359375 C 25.71875 -9.148438 25.195312 -7.164062 24.15625 -5.40625 C 23.113281 -3.644531 21.671875 -2.257812 19.828125 -1.25 C 17.992188 -0.238281 15.941406 0.265625 13.671875 0.265625 Z M 13.671875 -2.625 C 15.335938 -2.625 16.832031 -3.003906 18.15625 -3.765625 C 19.488281 -4.523438 20.539062 -5.566406 21.3125 -6.890625 C 22.082031 -8.222656 22.46875 -9.710938 22.46875 -11.359375 C 22.46875 -13.003906 22.082031 -14.492188 21.3125 -15.828125 C 20.539062 -17.160156 19.488281 -18.203125 18.15625 -18.953125 C 16.832031 -19.710938 15.335938 -20.09375 13.671875 -20.09375 C 12.003906 -20.09375 10.492188 -19.710938 9.140625 -18.953125 C 7.785156 -18.203125 6.722656 -17.160156 5.953125 -15.828125 C 5.191406 -14.492188 4.8125 -13.003906 4.8125 -11.359375 C 4.8125 -9.710938 5.191406 -8.222656 5.953125 -6.890625 C 6.722656 -5.566406 7.785156 -4.523438 9.140625 -3.765625 C 10.492188 -3.003906 12.003906 -2.625 13.671875 -2.625 Z M 13.671875 -2.625 "/></g></g></g><g fill="#582707" fill-opacity="1"><g transform="translate(554.112914, 403.179199)"><g><path d="M 3.40625 -22.734375 L 12.984375 -22.734375 C 15.390625 -22.734375 17.519531 -22.253906 19.375 -21.296875 C 21.238281 -20.347656 22.6875 -19.007812 23.71875 -17.28125 C 24.75 -15.5625 25.265625 -13.585938 25.265625 -11.359375 C 25.265625 -9.128906 24.75 -7.15625 23.71875 -5.4375 C 22.6875 -3.71875 21.238281 -2.378906 19.375 -1.421875 C 17.519531 -0.472656 15.390625 0 12.984375 0 L 3.40625 0 Z M 12.796875 -2.828125 C 14.628906 -2.828125 16.242188 -3.179688 17.640625 -3.890625 C 19.035156 -4.609375 20.113281 -5.609375 20.875 -6.890625 C 21.632812 -8.179688 22.015625 -9.671875 22.015625 -11.359375 C 22.015625 -13.046875 21.632812 -14.535156 20.875 -15.828125 C 20.113281 -17.117188 19.035156 -18.117188 17.640625 -18.828125 C 16.242188 -19.546875 14.628906 -19.90625 12.796875 -19.90625 L 6.65625 -19.90625 L 6.65625 -2.828125 Z M 12.796875 -2.828125 "/></g></g></g><g fill="#582707" fill-opacity="1"><g transform="translate(582.841531, 403.179199)"><g><path d="M 3.40625 -22.734375 L 12.984375 -22.734375 C 15.390625 -22.734375 17.519531 -22.253906 19.375 -21.296875 C 21.238281 -20.347656 22.6875 -19.007812 23.71875 -17.28125 C 24.75 -15.5625 25.265625 -13.585938 25.265625 -11.359375 C 25.265625 -9.128906 24.75 -7.15625 23.71875 -5.4375 C 22.6875 -3.71875 21.238281 -2.378906 19.375 -1.421875 C 17.519531 -0.472656 15.390625 0 12.984375 0 L 3.40625 0 Z M 12.796875 -2.828125 C 14.628906 -2.828125 16.242188 -3.179688 17.640625 -3.890625 C 19.035156 -4.609375 20.113281 -5.609375 20.875 -6.890625 C 21.632812 -8.179688 22.015625 -9.671875 22.015625 -11.359375 C 22.015625 -13.046875 21.632812 -14.535156 20.875 -15.828125 C 20.113281 -17.117188 19.035156 -18.117188 17.640625 -18.828125 C 16.242188 -19.546875 14.628906 -19.90625 12.796875 -19.90625 L 6.65625 -19.90625 L 6.65625 -2.828125 Z M 12.796875 -2.828125 "/></g></g></g><g fill="#582707" fill-opacity="1"><g transform="translate(611.57016, 403.179199)"><g><path d="M 19.90625 -2.828125 L 19.90625 0 L 3.40625 0 L 3.40625 -22.734375 L 19.453125 -22.734375 L 19.453125 -19.90625 L 6.65625 -19.90625 L 6.65625 -12.921875 L 18.046875 -12.921875 L 18.046875 -10.15625 L 6.65625 -10.15625 L 6.65625 -2.828125 Z M 19.90625 -2.828125 "/></g></g></g><g fill="#582707" fill-opacity="1"><g transform="translate(635.23487, 403.179199)"><g><path d="M 22.953125 -22.734375 L 22.953125 0 L 20.296875 0 L 6.65625 -16.953125 L 6.65625 0 L 3.40625 0 L 3.40625 -22.734375 L 6.078125 -22.734375 L 19.703125 -5.78125 L 19.703125 -22.734375 Z M 22.953125 -22.734375 "/></g></g></g></svg>