<?xml version="1.0" encoding="UTF-8"?>
<svg id="Layer_1" data-name="Layer 1" xmlns="http://www.w3.org/2000/svg" viewBox="0 0 389.22 175.46">
  <defs>
    <style>
      .cls-1 {
        fill: #fff;
      }
    </style>
  </defs>
  <path class="cls-1" d="M102.31,89.7c-13.15,20.6-21.67,31.79-46.18,31.79H31.61V10.13c0-6.4,6.22-8.35,15.28-9.24V0H0V.89c7.28,.89,13.5,2.84,13.5,9.24V110.66c0,6.4-6.22,10.12-13.5,12.79v.89H87.21l6.04,3.91,1.06-3.91,8.7-34.28-.71-.35Z"/>
  <path class="cls-1" d="M178.33,119.56v-.89H113.94l-3.54,2.13c30.25,.89,36.44,1.77,36.44,8.14v29.72c-4.6,5.84-11.67,9.02-22.46,9.02-33.08,0-57.84-30.07-57.84-66.86,0-33.08,19.64-50.41,43.34-50.41,27.42,0,42.1,22.46,32.55,45.99l.53,.18,22.46-31.31c-8.14-9.91-24.23-18.57-47.05-18.57-36.44,0-71.64,23.53-71.64,64.39,0,38.03,31.14,64.39,64.92,64.39,15.21,0,27.42-5.3,35.2-13.62l-1.77,11.15h33.26v-.89c-7.26-.89-13.44-2.83-13.44-9.2v-33.96c0-6.36,6.19-8.49,13.44-9.38Z"/>
  <path class="cls-1" d="M205.92,98.84h2.21v13.52h8.35v1.92h-10.56v-15.44Z"/>
  <path class="cls-1" d="M220.31,98.84h2.21v15.44h-2.21v-15.44Z"/>
  <path class="cls-1" d="M239.96,112.36v1.92h-12.9v-1.5l9.71-12.02h-9.54v-1.92h12.46v1.5l-9.67,12.02h9.94Z"/>
  <path class="cls-1" d="M255.73,112.36v1.92h-12.9v-1.5l9.71-12.02h-9.54v-1.92h12.46v1.5l-9.67,12.02h9.94Z"/>
  <path class="cls-1" d="M265.9,108.95v5.33h-2.19v-5.38l-6.13-10.06h2.35l4.94,8.15,4.96-8.15h2.19l-6.13,10.1Z"/>
  <path class="cls-1" d="M293.46,106.47h2.13v6.02c-.77,.64-1.66,1.13-2.67,1.46-1.02,.33-2.08,.5-3.19,.5-1.56,0-2.96-.34-4.21-1.02-1.25-.68-2.23-1.61-2.94-2.81-.71-1.19-1.06-2.54-1.06-4.04s.35-2.85,1.06-4.06,1.69-2.15,2.94-2.81c1.26-.68,2.69-1.02,4.27-1.02,1.22,0,2.33,.2,3.33,.6,1.01,.41,1.88,.99,2.58,1.77l-1.35,1.38c-1.24-1.19-2.73-1.79-4.48-1.79-1.18,0-2.24,.26-3.17,.77-.93,.5-1.66,1.2-2.19,2.1-.53,.91-.79,1.93-.79,3.06s.26,2.12,.79,3.02c.53,.91,1.26,1.61,2.19,2.13,.93,.52,1.98,.77,3.15,.77,1.38,0,2.57-.32,3.6-.98v-5.04Z"/>
  <path class="cls-1" d="M308.04,114.45c-1.56,0-2.96-.34-4.21-1.02-1.25-.68-2.23-1.61-2.94-2.81-.71-1.21-1.06-2.55-1.06-4.04s.35-2.83,1.06-4.04,1.69-2.15,2.94-2.83c1.25-.68,2.65-1.02,4.21-1.02s2.95,.34,4.19,1.02c1.25,.68,2.23,1.63,2.94,2.83,.71,1.2,1.06,2.54,1.06,4.04s-.35,2.85-1.06,4.04c-.71,1.2-1.69,2.14-2.94,2.81-1.24,.68-2.64,1.02-4.19,1.02Zm0-1.96c1.14,0,2.16-.26,3.06-.77,.9-.51,1.61-1.22,2.13-2.13,.53-.9,.79-1.91,.79-3.02s-.27-2.14-.79-3.04c-.52-.9-1.22-1.61-2.13-2.13-.91-.51-1.93-.77-3.06-.77s-2.15,.26-3.06,.77c-.92,.52-1.64,1.22-2.17,2.13-.52,.91-.77,1.92-.77,3.04s.26,2.12,.77,3.02c.53,.91,1.25,1.61,2.17,2.13,.92,.52,1.94,.77,3.06,.77Z"/>
  <path class="cls-1" d="M320.89,98.84h6.5c1.64,0,3.09,.33,4.35,.98,1.26,.66,2.24,1.56,2.94,2.73,.69,1.17,1.04,2.51,1.04,4.02s-.35,2.85-1.04,4.02c-.7,1.17-1.68,2.08-2.94,2.73-1.27,.64-2.72,.96-4.35,.96h-6.5v-15.44Zm6.38,13.52c1.25,0,2.34-.24,3.29-.73,.94-.48,1.67-1.17,2.19-2.04,.51-.88,.77-1.88,.77-3.02s-.26-2.17-.77-3.04c-.52-.88-1.24-1.55-2.19-2.04-.95-.48-2.04-.73-3.29-.73h-4.17v11.6h4.17Z"/>
  <path class="cls-1" d="M340.39,98.84h6.5c1.64,0,3.09,.33,4.35,.98,1.26,.66,2.24,1.56,2.94,2.73,.69,1.17,1.04,2.51,1.04,4.02s-.35,2.85-1.04,4.02c-.7,1.17-1.68,2.08-2.94,2.73-1.27,.64-2.72,.96-4.35,.96h-6.5v-15.44Zm6.38,13.52c1.25,0,2.34-.24,3.29-.73,.94-.48,1.67-1.17,2.19-2.04,.51-.88,.77-1.88,.77-3.02s-.26-2.17-.77-3.04c-.52-.88-1.24-1.55-2.19-2.04-.95-.48-2.04-.73-3.29-.73h-4.17v11.6h4.17Z"/>
  <path class="cls-1" d="M371.09,112.36v1.92h-11.21v-15.44h10.9v1.92h-8.69v4.75h7.73v1.88h-7.73v4.98h9Z"/>
  <path class="cls-1" d="M389.22,98.84v15.44h-1.81l-9.25-11.5v11.5h-2.21v-15.44h1.81l9.25,11.52v-11.52h2.21Z"/>
</svg>